<svg width="123" height="103" viewBox="0 0 123 103" fill="none" xmlns="http://www.w3.org/2000/svg">
<path opacity="0.2" fill-rule="evenodd" clip-rule="evenodd" d="M123 102.998V18.208H113.317V89.5222C113.315 90.1149 113.19 90.7009 112.951 91.2433C112.712 91.7858 112.363 92.273 111.926 92.6744C111.49 93.0758 110.975 93.3827 110.414 93.5759C109.853 93.7692 109.258 93.8446 108.667 93.7973C88.3226 92.1591 70.3356 95.255 54.9935 103L123 102.998ZM-43 18.208V102.998H25.025C9.68287 95.2586 -8.30416 92.1573 -28.6484 93.7955C-29.2397 93.8424 -29.8344 93.7669 -30.3952 93.5735C-30.956 93.3802 -31.4708 93.0732 -31.9073 92.6719C-32.3438 92.2705 -32.6926 91.7834 -32.932 91.2411C-33.1713 90.6989 -33.296 90.113 -33.2982 89.5203V18.2062L-43 18.208ZM-24.705 0.165692C-1.1182 -1.03762 19.1928 4.3174 35.7135 16.0944V99.1671C20.2792 89.6125 2.1852 84.7937 -18.266 84.7937C-20.3926 84.7937 -22.534 84.8453 -24.705 84.954V0.165692ZM104.714 0.165692V84.9466C81.6014 83.841 61.3494 88.6137 44.2939 99.1708V16.0944C60.8182 4.32477 81.1163 -1.03578 104.718 0.165692H104.714Z" fill="#F2F0ED"/>
</svg>
